<?xml version="1.0" standalone="no"?><!DOCTYPE svg PUBLIC "-//W3C//DTD SVG 1.1//EN" "http://www.w3.org/Graphics/SVG/1.1/DTD/svg11.dtd"><svg t="1752292020330" class="icon" viewBox="0 0 1024 1024" version="1.1" xmlns="http://www.w3.org/2000/svg" p-id="3289" xmlns:xlink="http://www.w3.org/1999/xlink" width="32" height="32"><path d="M774.688 92.021333a21.333333 21.333333 0 0 1 21.333333 21.333334v128a21.333333 21.333333 0 0 1-21.333333 21.333333h-533.333333a21.333333 21.333333 0 0 1-21.333334-21.333333v-128a21.333333 21.333333 0 0 1 21.333334-21.333334h533.333333z" fill="#383634" p-id="3290"></path><path d="M817.354667 113.354667v128a42.666667 42.666667 0 0 1-42.666667 42.666666h-533.333333a42.666667 42.666667 0 0 1-42.666667-42.666666v-128a42.666667 42.666667 0 0 1 42.666667-42.666667h533.333333a42.666667 42.666667 0 0 1 42.666667 42.666667z m-21.333334 0a21.333333 21.333333 0 0 0-21.333333-21.333334h-533.333333a21.333333 21.333333 0 0 0-21.333334 21.333334v128a21.333333 21.333333 0 0 0 21.333334 21.333333h533.333333a21.333333 21.333333 0 0 0 21.333333-21.333333v-128z" fill="#171716" p-id="3291"></path><path d="M239.413333 102.688a10.666667 10.666667 0 0 1 10.666667-10.666667h521.941333a10.666667 10.666667 0 1 1 0 21.333334H250.08a10.666667 10.666667 0 0 1-10.666667-10.666667z" fill="#383634" p-id="3292"></path><path d="M235.36 164.693333a10.666667 10.666667 0 0 1 10.666667-10.666666h521.941333a10.666667 10.666667 0 1 1 0 21.333333H246.026667a10.666667 10.666667 0 0 1-10.666667-10.666667zM235.36 125.354667a10.666667 10.666667 0 0 1 10.666667-10.666667h521.941333a10.666667 10.666667 0 1 1 0 21.333333H246.026667a10.666667 10.666667 0 0 1-10.666667-10.666666zM235.36 203.349333a10.666667 10.666667 0 0 1 10.666667-10.666666h521.941333a10.666667 10.666667 0 1 1 0 21.333333H246.026667a10.666667 10.666667 0 0 1-10.666667-10.666667zM239.413333 238.688a10.666667 10.666667 0 0 1 10.666667-10.666667h521.941333a10.666667 10.666667 0 1 1 0 21.333334H250.08a10.666667 10.666667 0 0 1-10.666667-10.666667z" fill="#252323" p-id="3293"></path><path d="M253.098667 100.416a21.333333 21.333333 0 0 0-30.176 0L132.426667 190.933333a21.333333 21.333333 0 0 0 0 30.165334L496.288 584.96a21.333333 21.333333 0 0 0 30.165333 0l90.517334-90.517333a21.333333 21.333333 0 0 0 0-30.165334L253.098667 100.416z" fill="#565452" p-id="3294"></path><path d="M207.84 85.333333L117.333333 175.850667a42.666667 42.666667 0 0 0 0 60.330666l363.872 363.872a42.666667 42.666667 0 0 0 60.341334 0l90.506666-90.506666a42.666667 42.666667 0 0 0 0-60.341334L268.181333 85.333333a42.666667 42.666667 0 0 0-60.341333 0zM222.933333 100.426667a21.333333 21.333333 0 0 1 30.165334 0L616.96 464.288a21.333333 21.333333 0 0 1 0 30.176l-90.517333 90.506667a21.333333 21.333333 0 0 1-30.165334 0L132.416 221.098667a21.333333 21.333333 0 0 1 0-30.165334L222.933333 100.426667z" fill="#171716" p-id="3295"></path><path d="M762.954667 100.832a21.333333 21.333333 0 0 1 30.378666-0.213333l90.506667 90.517333a21.333333 21.333333 0 0 1 0.213333 29.962667L530.421333 584.533333a21.333333 21.333333 0 0 1-30.378666 0.213334l-90.506667-90.506667a21.333333 21.333333 0 0 1-0.213333-29.962667L762.965333 100.832z" fill="#565452" p-id="3296"></path><path d="M808.416 85.546667l90.506667 90.506666a42.666667 42.666667 0 0 1 0.416 59.925334L545.706667 599.424a42.666667 42.666667 0 0 1-60.746667 0.426667L394.453333 509.333333a42.666667 42.666667 0 0 1-0.416-59.925333L747.669333 85.962667a42.666667 42.666667 0 0 1 60.746667-0.426667z m-15.082667 15.082666a21.333333 21.333333 0 0 0-30.378666 0.213334L409.344 464.298667a21.333333 21.333333 0 0 0 0.202667 29.952l90.506666 90.506666a21.333333 21.333333 0 0 0 30.378667-0.213333l353.610667-363.445333a21.333333 21.333333 0 0 0-0.213334-29.962667l-90.496-90.506667z" fill="#171716" p-id="3297"></path><path d="M780.202667 109.781333a10.666667 10.666667 0 0 1 0.064 15.082667L562.261333 344.853333a10.666667 10.666667 0 0 1-15.146666-15.018666l217.994666-220a10.666667 10.666667 0 0 1 15.093334-0.064zM135.146667 199.146667a10.666667 10.666667 0 0 1 15.082666 0l138.666667 138.666666a10.666667 10.666667 0 0 1-15.082667 15.082667l-138.666666-138.666667a10.666667 10.666667 0 0 1 0-15.082666z" fill="#8A8886" p-id="3298"></path><path d="M823.584 170.944c-4.266667 4.266667-11.104 4.362667-15.274667 0.192a10.805333 10.805333 0 0 1 0.192-15.274667c4.266667-4.266667 11.104-4.362667 15.274667-0.192 4.16 4.16 4.085333 11.008-0.192 15.274667zM791.146667 197.344c-5.312 5.312-13.824 5.418667-19.008 0.234667s-5.077333-13.685333 0.234666-18.997334 13.824-5.418667 19.008-0.234666 5.077333 13.685333-0.234666 18.997333zM825.706667 205.696a6.72 6.72 0 0 1-9.493334 0.106667 6.72 6.72 0 0 1 0.106667-9.493334 6.72 6.72 0 0 1 9.504-0.117333 6.72 6.72 0 0 1-0.106667 9.493333zM748.874667 295.818667a6.72 6.72 0 0 1-9.504 0.117333 6.72 6.72 0 0 1 0.106666-9.493333 6.72 6.72 0 0 1 9.514667-0.128 6.72 6.72 0 0 1-0.117333 9.504zM787.445333 234.592a6.72 6.72 0 0 1-9.504 0.106667 6.72 6.72 0 0 1 0.117334-9.493334 6.72 6.72 0 0 1 9.493333-0.117333 6.72 6.72 0 0 1-0.106667 9.493333zM748.757333 332.554667a6.72 6.72 0 0 1-9.504 0.106666 6.72 6.72 0 0 1 0.106667-9.493333 6.72 6.72 0 0 1 9.514667-0.117333 6.72 6.72 0 0 1-0.117334 9.493333zM758.496 226.485333a6.72 6.72 0 0 1-9.504 0.117334 6.72 6.72 0 0 1 0.106667-9.493334 6.72 6.72 0 0 1 9.514666-0.128 6.72 6.72 0 0 1-0.117333 9.504zM780.128 302.464a6.72 6.72 0 0 1-9.493333 0.117333 6.72 6.72 0 0 1 0.106666-9.493333 6.72 6.72 0 0 1 9.504-0.128 6.72 6.72 0 0 1-0.106666 9.504zM857.92 188.864a6.72 6.72 0 0 1-9.504 0.106667 6.72 6.72 0 0 1 0.106667-9.493334 6.72 6.72 0 0 1 9.504-0.117333 6.72 6.72 0 0 1-0.106667 9.493333zM822.730667 244.597333a10.933333 10.933333 0 0 1-15.466667 0.192 10.933333 10.933333 0 0 1 0.192-15.466666 10.933333 10.933333 0 0 1 15.466667-0.181334 10.933333 10.933333 0 0 1-0.192 15.466667zM863.946667 218.666667a10.933333 10.933333 0 0 1-15.466667 0.192 10.933333 10.933333 0 0 1 0.192-15.466667 10.933333 10.933333 0 0 1 15.466667-0.192 10.933333 10.933333 0 0 1-0.192 15.466667zM780.458667 272.117333a10.933333 10.933333 0 0 1-15.466667 0.192 10.933333 10.933333 0 0 1 0.192-15.466666 10.933333 10.933333 0 0 1 15.466667-0.181334 10.933333 10.933333 0 0 1-0.192 15.466667zM810.432 276.821333a6.72 6.72 0 0 1-9.493333 0.106667 6.72 6.72 0 0 1 0.106666-9.493333 6.72 6.72 0 0 1 9.504-0.117334 6.72 6.72 0 0 1-0.117333 9.493334z" fill="#464543" p-id="3299"></path><path d="M800 650.666667c0 159.061333-128.938667 288-288 288S224 809.728 224 650.666667s128.938667-288 288-288 288 128.938667 288 288z" fill="#FFBB0D" p-id="3300"></path><path d="M821.333333 650.666667c0 170.837333-138.496 309.333333-309.333333 309.333333S202.666667 821.504 202.666667 650.666667s138.496-309.333333 309.333333-309.333334 309.333333 138.496 309.333333 309.333334zM512 938.666667c159.061333 0 288-128.938667 288-288S671.061333 362.666667 512 362.666667 224 491.605333 224 650.666667s128.938667 288 288 288z" fill="#E89B05" p-id="3301"></path><path d="M245.333333 661.333333a10.666667 10.666667 0 0 1-10.666666-10.666666c0-153.173333 124.16-277.333333 277.333333-277.333334a10.666667 10.666667 0 1 1 0 21.333334c-141.386667 0-256 114.613333-256 256a10.666667 10.666667 0 0 1-10.666667 10.666666z" fill="#FFD15C" p-id="3302"></path><path d="M778.666667 640a10.666667 10.666667 0 0 1 10.666666 10.666667c0 153.173333-124.16 277.333333-277.333333 277.333333a10.666667 10.666667 0 1 1 0-21.333333c141.386667 0 256-114.613333 256-256a10.666667 10.666667 0 0 1 10.666667-10.666667z" fill="#EEAD04" p-id="3303"></path><path d="M725.333333 650.666667c0 117.824-95.509333 213.333333-213.333333 213.333333s-213.333333-95.509333-213.333333-213.333333 95.509333-213.333333 213.333333-213.333334 213.333333 95.509333 213.333333 213.333334z" fill="#FFDD28" p-id="3304"></path><path d="M746.666667 650.666667c0 129.6-105.066667 234.666667-234.666667 234.666666s-234.666667-105.066667-234.666667-234.666666 105.066667-234.666667 234.666667-234.666667 234.666667 105.066667 234.666667 234.666667zM512 864c117.824 0 213.333333-95.509333 213.333333-213.333333s-95.509333-213.333333-213.333333-213.333334-213.333333 95.509333-213.333333 213.333334 95.509333 213.333333 213.333333 213.333333z" fill="#E89B05" p-id="3305"></path><path d="M512 832c100.149333 0 181.333333-81.184 181.333333-181.333333a10.666667 10.666667 0 1 1 21.333334 0c0 111.925333-90.741333 202.666667-202.666667 202.666666a10.666667 10.666667 0 1 1 0-21.333333z" fill="#ECC704" p-id="3306"></path><path d="M512 469.333333c-100.149333 0-181.333333 81.184-181.333333 181.333334a10.666667 10.666667 0 1 1-21.333334 0c0-111.925333 90.741333-202.666667 202.666667-202.666667a10.666667 10.666667 0 1 1 0 21.333333z" fill="#FFEF9C" p-id="3307"></path><path d="M640 600.885333L614.208 742.72a20.874667 20.874667 0 0 1-17.290667 17.002667C576.533333 762.858667 539.136 768 512 768c-27.136 0-64.554667-5.141333-84.906667-8.277333a20.874667 20.874667 0 0 1-17.301333-17.002667L384 600.885333l74.666667 32L512 544l53.333333 88.885333 74.666667-32z" fill="#FFEF9C" p-id="3308"></path><path d="M512 533.333333a10.666667 10.666667 0 0 1 9.152 5.184l48.533333 80.896 66.112-28.330666a10.666667 10.666667 0 0 1 14.698667 11.712L624.704 744.64a31.541333 31.541333 0 0 1-26.165333 25.632C578.197333 773.397333 540.053333 778.666667 512 778.666667c-28.053333 0-66.197333-5.269333-86.538667-8.405334a31.541333 31.541333 0 0 1-26.165333-25.632l-25.792-141.834666a10.666667 10.666667 0 0 1 14.698667-11.712l66.112 28.330666 48.533333-80.896A10.666667 10.666667 0 0 1 512 533.333333z m0 31.402667l-44.181333 73.642667a10.666667 10.666667 0 0 1-13.354667 4.309333l-56.426667-24.170667 22.24 122.293334a10.208 10.208 0 0 0 8.426667 8.362666c20.394667 3.146667 57.066667 8.16 83.296 8.16 26.229333 0 62.912-5.013333 83.285333-8.16a10.208 10.208 0 0 0 8.426667-8.362666l22.24-122.293334-56.426667 24.181334a10.666667 10.666667 0 0 1-13.333333-4.32L512 564.736z" fill="#E89B05" p-id="3309"></path></svg>