<?xml version="1.0" standalone="no"?><!DOCTYPE svg PUBLIC "-//W3C//DTD SVG 1.1//EN" "http://www.w3.org/Graphics/SVG/1.1/DTD/svg11.dtd"><svg t="1752283216390" class="icon" viewBox="0 0 1024 1024" version="1.1" xmlns="http://www.w3.org/2000/svg" p-id="3125" xmlns:xlink="http://www.w3.org/1999/xlink" width="32" height="32"><path d="M746.666667 106.666667H277.333333a21.333333 21.333333 0 1 0 0 42.666666h469.333334a21.333333 21.333333 0 1 0 0-42.666666z" fill="#C52229" p-id="3126"></path><path d="M277.333333 85.333333h469.333334a42.666667 42.666667 0 0 1 0 85.333334H277.333333a42.666667 42.666667 0 0 1 0-85.333334z m0 21.333334h469.333334a21.333333 21.333333 0 1 1 0 42.666666H277.333333a21.333333 21.333333 0 1 1 0-42.666666z" fill="#9B0F15" p-id="3127"></path><path d="M266.666667 117.333333a10.666667 10.666667 0 0 1 10.666666-10.666666h101.333334a10.666667 10.666667 0 1 1 0 21.333333H277.333333a10.666667 10.666667 0 0 1-10.666666-10.666667z" fill="#DF3840" p-id="3128"></path><path d="M672 85.333333H352a10.666667 10.666667 0 0 0-10.666667 10.666667v533.333333a10.666667 10.666667 0 0 0 10.666667 10.666667h320a10.666667 10.666667 0 0 0 10.666667-10.666667V96a10.666667 10.666667 0 0 0-10.666667-10.666667z" fill="#F1333B" p-id="3129"></path><path d="M352 64h320a32 32 0 0 1 32 32v533.333333a32 32 0 0 1-32 32H352a32 32 0 0 1-32-32V96a32 32 0 0 1 32-32z m0 21.333333h320a10.666667 10.666667 0 0 1 10.666667 10.666667v533.333333a10.666667 10.666667 0 0 1-10.666667 10.666667H352a10.666667 10.666667 0 0 1-10.666667-10.666667V96a10.666667 10.666667 0 0 1 10.666667-10.666667z" fill="#9B0F15" p-id="3130"></path><path d="M361.333333 97.333333a10.666667 10.666667 0 0 1 10.666667 10.666667V602.666667H645.333333a10.666667 10.666667 0 1 1 0 21.333333H361.333333a10.666667 10.666667 0 0 1-10.666666-10.666667V108a10.666667 10.666667 0 0 1 10.666666-10.666667z" fill="#FE666D" p-id="3131"></path><path d="M597.696 126.4c0 6.048-4.778667 10.944-10.666667 10.944-5.898667 0-10.666667-4.906667-10.666666-10.933333 0-6.048 4.768-10.944 10.666666-10.944 5.888 0 10.666667 4.906667 10.666667 10.944zM560.234667 129.066667c0 7.52-5.941333 13.610667-13.269334 13.610666-7.338667 0-13.28-6.090667-13.28-13.6 0-7.52 5.941333-13.610667 13.28-13.610666 7.328 0 13.269333 6.090667 13.269334 13.610666zM593.418667 168.021333c0 7.509333-5.941333 13.6-13.269334 13.6-7.328 0-13.28-6.08-13.28-13.6 0-7.509333 5.952-13.6 13.28-13.6s13.269333 6.08 13.269334 13.6zM623.776 149.482667a6.72 6.72 0 0 1-6.645333 6.794666 6.72 6.72 0 0 1-6.634667-6.794666 6.72 6.72 0 0 1 6.634667-6.805334 6.72 6.72 0 0 1 6.645333 6.805334zM553.589333 161.216a6.72 6.72 0 0 1-6.645333 6.805333 6.72 6.72 0 0 1-6.634667-6.805333 6.72 6.72 0 0 1 6.634667-6.794667 6.72 6.72 0 0 1 6.645333 6.794667zM516.608 119.605333a6.72 6.72 0 0 1-6.634667 6.805334 6.72 6.72 0 0 1-6.645333-6.805334 6.72 6.72 0 0 1 6.645333-6.805333 6.72 6.72 0 0 1 6.634667 6.805333zM617.152 196.96a6.72 6.72 0 0 1-6.645333 6.794667 6.72 6.72 0 0 1-6.634667-6.794667 6.72 6.72 0 0 1 6.634667-6.805333 6.72 6.72 0 0 1 6.645333 6.805333zM582.997333 203.754667a6.72 6.72 0 0 1-6.634666 6.805333 6.72 6.72 0 0 1-6.634667-6.794667 6.72 6.72 0 0 1 6.634667-6.805333 6.72 6.72 0 0 1 6.634666 6.794667zM659.978667 250.133333a6.72 6.72 0 0 1-6.634667 6.805334 6.72 6.72 0 0 1-6.634667-6.805334 6.72 6.72 0 0 1 6.634667-6.794666 6.72 6.72 0 0 1 6.634667 6.794666zM634.645333 114.805333a6.72 6.72 0 0 1-6.634666 6.794667 6.72 6.72 0 0 1-6.634667-6.794667 6.72 6.72 0 0 1 6.634667-6.805333 6.72 6.72 0 0 1 6.634666 6.805333zM649.173333 179.093333c0 6.112-4.821333 11.072-10.794666 11.072-5.962667 0-10.794667-4.96-10.794667-11.072s4.832-11.072 10.794667-11.072c5.973333 0 10.805333 4.96 10.805333 11.072zM659.978667 131.605333c0 6.112-4.842667 11.072-10.805334 11.072-5.962667 0-10.794667-4.96-10.794666-11.072S643.2 120.533333 649.173333 120.533333c5.973333 0 10.805333 4.96 10.805334 11.072zM638.741333 228.437333c0 6.112-4.832 11.072-10.794666 11.072-5.973333 0-10.805333-4.96-10.805334-11.072s4.842667-11.072 10.805334-11.072c5.973333 0 10.794667 4.96 10.794666 11.072zM663.253333 210.56a6.72 6.72 0 0 1-6.634666 6.805333 6.72 6.72 0 0 1-6.645334-6.805333 6.72 6.72 0 0 1 6.645334-6.794667 6.72 6.72 0 0 1 6.634666 6.794667z" fill="#DB1B24" p-id="3132"></path><path d="M287.018667 566.314667L224 650.666667l63.018667 84.352 21.333333 119.296 119.296 21.333333L512 938.666667l84.352-63.018667 119.296-21.333333 21.333333-119.296L800 650.666667l-63.018667-84.352-21.333333-119.296-119.296-21.333334L512 362.666667l-84.352 63.018666-119.296 21.333334-21.333333 119.296z" fill="#FFBB0D" p-id="3133"></path><path d="M206.912 663.434667a21.333333 21.333333 0 0 1 0-25.536l60-80.309334 20.437333-114.325333a21.333333 21.333333 0 0 1 17.248-17.248l114.325334-20.437333 80.309333-60a21.333333 21.333333 0 0 1 25.536 0l80.32 60 114.314667 20.437333a21.333333 21.333333 0 0 1 17.248 17.248l20.437333 114.325333 60 80.309334a21.333333 21.333333 0 0 1 0 25.536l-60 80.32-20.437333 114.314666a21.333333 21.333333 0 0 1-17.248 17.248l-114.325334 20.437334-80.309333 60a21.333333 21.333333 0 0 1-25.536 0l-80.309333-60-114.325334-20.437334a21.333333 21.333333 0 0 1-17.248-17.248l-20.437333-114.325333-60-80.309333z m80.106667 71.584l21.333333 119.296 119.296 21.333333L512 938.666667l84.352-63.018667 119.296-21.333333 21.333333-119.296L800 650.666667l-63.018667-84.352-21.333333-119.296-119.296-21.333334L512 362.666667l-84.352 63.018666-119.296 21.333334-21.333333 119.296L224 650.666667l63.018667 84.352z" fill="#E89B05" p-id="3134"></path><path d="M698.688 451.605333a10.666667 10.666667 0 0 1 12.373333 8.618667l19.306667 107.978667 56.853333 76.085333a10.666667 10.666667 0 0 1 0 12.768l-56.853333 76.074667-19.306667 107.978666a10.666667 10.666667 0 0 1-8.618666 8.618667l-107.978667 19.306667-76.074667 56.853333a10.666667 10.666667 0 0 1-12.768-17.098667l78.101334-58.346666a10.666667 10.666667 0 0 1 4.501333-1.962667l103.146667-18.442667 18.453333-103.146666a10.666667 10.666667 0 0 1 1.941333-4.501334L765.354667 650.666667l-53.589334-71.722667a10.666667 10.666667 0 0 1-1.952-4.501333l-19.754666-110.453334a10.666667 10.666667 0 0 1 8.629333-12.373333z" fill="#EEAD04" p-id="3135"></path><path d="M520.544 377.610667a10.666667 10.666667 0 0 1-2.154667 14.933333l-78.112 58.346667a10.666667 10.666667 0 0 1-4.501333 1.962666l-103.146667 18.453334-18.453333 103.136a10.666667 10.666667 0 0 1-1.941333 4.501333l-58.346667 78.112a10.666667 10.666667 0 0 1-17.098667-12.768l56.842667-76.085333 19.306667-107.978667a10.666667 10.666667 0 0 1 8.618666-8.618667l107.978667-19.306666 76.085333-56.853334a10.666667 10.666667 0 0 1 14.933334 2.165334z" fill="#FFD15C" p-id="3136"></path><path d="M345.344 588.181333L298.666667 650.666667l46.677333 62.485333 15.808 88.362667 88.362667 15.808L512 864l62.485333-46.677333 88.362667-15.808 15.808-88.362667L725.333333 650.666667l-46.677333-62.485334-15.808-88.362666-88.362667-15.808L512 437.333333l-62.485333 46.677334-88.362667 15.808-15.808 88.362666z" fill="#FFDD28" p-id="3137"></path><path d="M281.578667 663.434667a21.333333 21.333333 0 0 1 0-25.536l43.658666-58.442667 14.912-83.392a21.333333 21.333333 0 0 1 17.248-17.248l83.392-14.912 58.442667-43.658667a21.333333 21.333333 0 0 1 25.536 0l58.442667 43.658667 83.392 14.912a21.333333 21.333333 0 0 1 17.248 17.248l14.912 83.392 43.658666 58.442667a21.333333 21.333333 0 0 1 0 25.536l-43.658666 58.442666-14.912 83.392a21.333333 21.333333 0 0 1-17.248 17.248l-83.392 14.912-58.442667 43.658667a21.333333 21.333333 0 0 1-25.536 0l-58.442667-43.658667-83.392-14.912a21.333333 21.333333 0 0 1-17.248-17.248l-14.912-83.392-43.658666-58.442666z m63.765333 49.706666l15.808 88.373334 88.362667 15.808L512 864l62.485333-46.677333 88.362667-15.808 15.808-88.362667L725.333333 650.666667l-46.677333-62.485334-15.808-88.362666-88.362667-15.808L512 437.333333l-62.485333 46.677334-88.362667 15.808-15.808 88.362666L298.666667 650.666667l46.677333 62.485333z" fill="#E89B05" p-id="3138"></path><path d="M645.888 504.405333a10.666667 10.666667 0 0 1 12.373333 8.618667l13.781334 77.045333 40.501333 54.208a10.666667 10.666667 0 0 1 0 12.768l-40.501333 54.218667-13.781334 77.045333a10.666667 10.666667 0 0 1-8.618666 8.618667l-77.045334 13.781333-54.208 40.501334a10.666667 10.666667 0 0 1-12.768-17.088l56.234667-42.016a10.666667 10.666667 0 0 1 4.501333-1.952l72.213334-12.906667 12.906666-72.213333a10.666667 10.666667 0 0 1 1.962667-4.512L690.688 650.666667l-37.248-49.856a10.666667 10.666667 0 0 1-1.952-4.501334l-14.218667-79.530666a10.666667 10.666667 0 0 1 8.618667-12.373334z" fill="#ECC704" p-id="3139"></path><path d="M520.544 452.277333a10.666667 10.666667 0 0 1-2.154667 14.933334l-56.234666 42.016a10.666667 10.666667 0 0 1-4.512 1.952l-72.213334 12.906666-12.906666 72.224a10.666667 10.666667 0 0 1-1.962667 4.501334L328.533333 657.066667a10.666667 10.666667 0 0 1-17.088-12.768l40.501334-54.218667 13.781333-77.045333a10.666667 10.666667 0 0 1 8.618667-8.618667l77.045333-13.781333 54.218667-40.501334a10.666667 10.666667 0 0 1 14.933333 2.165334z" fill="#FFEF9C" p-id="3140"></path><path d="M455.541333 541.792a10.666667 10.666667 0 0 1 0 15.082667 11.52 11.52 0 0 0-2.933333 5.088c1.066667-0.458667 2.144-0.896 3.253333-1.301334a10.666667 10.666667 0 0 1 7.392 20.010667c-12.544 4.629333-21.653333 14.090667-27.754666 25.386667-6.144 11.392-8.832 24.010667-8.832 33.536 0 19.349333 8.213333 40.021333 20.768 58.101333 12.544 18.101333 28.608 32.394667 42.666666 39.434667a10.666667 10.666667 0 1 1-9.536 19.072 114.325333 114.325333 0 0 1-21.792-14.56 91.584 91.584 0 0 1-11.946666 1.653333c-9.514667 0.746667-23.626667 0.693333-42.997334-2.069333a10.666667 10.666667 0 0 1 3.018667-21.12c14.08 2.016 24.842667 2.421333 32.597333 2.218666a167.68 167.68 0 0 1-9.546666-12.458666l-0.106667-0.181334a109.077333 109.077333 0 0 1-17.109333 0.298667c-11.616-0.725333-27.36-3.658667-40.416-13.450667a10.666667 10.666667 0 1 1 12.8-17.066666c8.277333 6.208 19.2 8.608 28.928 9.216 1.237333 0.085333 2.442667 0.128 3.584 0.149333-1.28-2.634667-2.464-5.301333-3.573334-8.010667l-2.528-0.928a139.68 139.68 0 0 1-15.797333-7.136c-12.053333-6.378667-27.370667-16.853333-36.821333-32.597333a10.666667 10.666667 0 1 1 18.293333-10.986667c6.538667 10.912 17.898667 19.114667 28.512 24.736l0.832 0.437334A96.288 96.288 0 0 1 405.333333 640.085333l-0.992-0.778666c-3.338667-2.602667-7.84-6.4-12.544-11.093334-9.12-9.12-20.298667-22.976-23.584-39.456a10.666667 10.666667 0 0 1 20.906667-4.181333c2.048 10.186667 9.546667 20.330667 17.76 28.544 0.693333 0.704 1.386667 1.376 2.069333 2.026667 1.066667-3.733333 2.378667-7.498667 3.946667-11.221334l-0.202667-0.224a58.816 58.816 0 0 1-8.234666-12.266666c-4.053333-8.128-7.616-20.128-4.138667-34.026667a10.666667 10.666667 0 0 1 20.693333 5.184c-1.856 7.434667-0.074667 14.101333 2.528 19.306667 0.341333 0.682667 0.704 1.344 1.056 1.952a76.906667 76.906667 0 0 1 7.061334-7.872 45.322667 45.322667 0 0 1-0.992-9.312c0-6.976 1.749333-16.832 9.792-24.874667a10.666667 10.666667 0 0 1 15.082666 0zM568.458667 541.792a10.666667 10.666667 0 0 1 15.082666 0c8.042667 8.042667 9.792 17.898667 9.792 24.874667a45.066667 45.066667 0 0 1-0.992 9.312c2.570667 2.485333 4.917333 5.12 7.072 7.872 0.352-0.608 0.704-1.269333 1.045334-1.952 2.602667-5.205333 4.384-11.872 2.528-19.306667a10.666667 10.666667 0 1 1 20.693333-5.184c3.477333 13.898667-0.074667 25.898667-4.138667 34.026667a58.826667 58.826667 0 0 1-8.234666 12.266666l-0.202667 0.224c1.578667 3.722667 2.88 7.477333 3.946667 11.210667 0.693333-0.64 1.386667-1.312 2.08-2.016 8.213333-8.213333 15.712-18.346667 17.749333-28.544a10.666667 10.666667 0 0 1 20.906667 4.181333c-3.285333 16.48-14.453333 30.336-23.573334 39.456A140.757333 140.757333 0 0 1 618.666667 640.085333c-0.021333 4.768-0.426667 9.536-1.173334 14.261334l0.853334-0.437334c10.613333-5.621333 21.973333-13.824 28.512-24.736a10.666667 10.666667 0 0 1 18.293333 10.986667c-9.461333 15.754667-24.768 26.218667-36.821333 32.597333a139.594667 139.594667 0 0 1-18.336 8.064c-1.098667 2.709333-2.293333 5.376-3.573334 8.010667 1.152-0.021333 2.346667-0.064 3.584-0.149333 9.728-0.608 20.650667-3.008 28.928-9.216a10.666667 10.666667 0 0 1 12.8 17.066666c-13.056 9.792-28.8 12.725333-40.394666 13.44a109.088 109.088 0 0 1-17.12-0.288 167.093333 167.093333 0 0 1-9.664 12.64c7.765333 0.213333 18.517333-0.213333 32.608-2.218666a10.666667 10.666667 0 0 1 3.018666 21.12c-19.381333 2.773333-33.493333 2.805333-42.997333 2.08a91.584 91.584 0 0 1-11.946667-1.664c-7.146667 5.973333-14.528 10.933333-21.802666 14.56a10.666667 10.666667 0 1 1-9.536-19.072c14.069333-7.04 30.122667-21.333333 42.666666-39.434667C589.12 679.616 597.333333 658.944 597.333333 639.584c0-9.514667-2.688-22.133333-8.832-33.525333-6.090667-11.296-15.2-20.757333-27.744-25.386667a10.666667 10.666667 0 0 1 7.381334-20.010667c1.109333 0.405333 2.197333 0.842667 3.264 1.301334a11.530667 11.530667 0 0 0-2.944-5.088 10.666667 10.666667 0 0 1 0-15.082667z" fill="#E89B05" p-id="3141"></path></svg>