<?xml version="1.0" standalone="no"?><!DOCTYPE svg PUBLIC "-//W3C//DTD SVG 1.1//EN" "http://www.w3.org/Graphics/SVG/1.1/DTD/svg11.dtd"><svg t="1753153124304" class="icon" viewBox="0 0 1024 1024" version="1.1" xmlns="http://www.w3.org/2000/svg" p-id="3217" xmlns:xlink="http://www.w3.org/1999/xlink" width="32" height="32"><path d="M853.333333 469.333333c0 188.512-152.821333 341.333333-341.333333 341.333334-188.512 0-341.333333-152.821333-341.333333-341.333334 0-188.512 152.821333-341.333333 341.333333-341.333333 188.512 0 341.333333 152.821333 341.333333 341.333333z" fill="#FFBB0D" p-id="3218"></path><path d="M878.613333 469.333333c0 202.474667-164.138667 366.613333-366.613333 366.613334S145.386667 671.808 145.386667 469.333333C145.386667 266.848 309.525333 102.72 512 102.72S878.613333 266.837333 878.613333 469.333333zM512 810.666667c188.512 0 341.333333-152.821333 341.333333-341.333334 0-188.512-152.821333-341.333333-341.333333-341.333333-188.512 0-341.333333 152.821333-341.333333 341.333333 0 188.512 152.821333 341.333333 341.333333 341.333334z" fill="#E89B05" p-id="3219"></path><path d="M195.946667 481.973333c-6.976 0-12.64-5.653333-12.64-12.64 0-181.536 147.157333-328.693333 328.693333-328.693333a12.64 12.64 0 1 1 0 25.28C344.426667 165.92 208.597333 301.76 208.597333 469.333333c0 6.976-5.664 12.64-12.650666 12.64z" fill="#FFD15C" p-id="3220"></path><path d="M828.053333 456.693333c6.976 0 12.64 5.653333 12.64 12.64 0 181.525333-147.157333 328.682667-328.693333 328.682667a12.64 12.64 0 0 1 0-25.28c167.573333 0 303.402667-135.84 303.402667-303.402667 0-6.986667 5.664-12.64 12.650666-12.64z" fill="#EEAD04" p-id="3221"></path><path d="M764.842667 469.333333c0 139.626667-113.205333 252.832-252.842667 252.832-139.637333 0-252.842667-113.194667-252.842667-252.832 0-139.648 113.205333-252.842667 252.842667-252.842666 139.637333 0 252.842667 113.194667 252.842667 252.842666z" fill="#FFDD28" p-id="3222"></path><path d="M790.122667 469.333333C790.122667 622.933333 665.6 747.456 512 747.456 358.4 747.456 233.877333 622.933333 233.877333 469.333333 233.877333 315.733333 358.4 191.210667 512 191.210667 665.6 191.210667 790.122667 315.733333 790.122667 469.333333zM512 722.176c139.637333 0 252.842667-113.205333 252.842667-252.842667 0-139.637333-113.205333-252.842667-252.842667-252.842666-139.637333 0-252.842667 113.205333-252.842667 252.842666C259.157333 608.96 372.373333 722.176 512 722.176z" fill="#E89B05" p-id="3223"></path><path d="M512 684.245333c118.698667 0 214.912-96.213333 214.912-214.912a12.64 12.64 0 0 1 25.28 0c0 132.650667-107.530667 240.192-240.192 240.192a12.64 12.64 0 0 1 0-25.28z" fill="#ECC704" p-id="3224"></path><path d="M512 254.421333c-118.698667 0-214.912 96.213333-214.912 214.912a12.64 12.64 0 0 1-25.28 0c0-132.661333 107.530667-240.202667 240.192-240.202666a12.64 12.64 0 0 1 0 25.28z" fill="#FFEF9C" p-id="3225"></path><path d="M125.621333 805.898667l-32.565333-65.130667A10.666667 10.666667 0 0 1 102.592 725.333333H245.333333a10.666667 10.666667 0 0 1 10.666667 10.666667v149.333333a10.666667 10.666667 0 0 1-10.666667 10.666667H102.592a10.666667 10.666667 0 0 1-9.536-15.434667l32.565333-65.130666a10.666667 10.666667 0 0 0 0-9.536zM898.389333 805.898667l32.565334-65.130667A10.666667 10.666667 0 0 0 921.408 725.333333H778.666667a10.666667 10.666667 0 0 0-10.666667 10.666667v149.333333a10.666667 10.666667 0 0 0 10.666667 10.666667h142.741333a10.666667 10.666667 0 0 0 9.546667-15.434667l-32.565334-65.130666a10.666667 10.666667 0 0 1 0-9.536z" fill="#C52229" p-id="3226"></path><path d="M104.149333 810.666667l-30.176-60.352C63.338667 729.034667 78.805333 704 102.592 704H245.333333a32 32 0 0 1 32 32v149.333333a32 32 0 0 1-32 32H102.592c-23.786667 0-39.253333-25.034667-28.618667-46.314666L104.16 810.666667z m2.378667 4.757333v0.010667l9.546667-4.768-9.536 4.768zM919.861333 810.666667l30.176-60.352c10.634667-21.28-4.842667-46.314667-28.629333-46.314667H778.666667a32 32 0 0 0-32 32v149.333333a32 32 0 0 0 32 32h142.741333c23.786667 0 39.253333-25.034667 28.618667-46.314666L919.861333 810.666667z m11.093334-69.898667l-32.565334 65.130667a10.666667 10.666667 0 0 0 0 9.536l32.565334 65.130666A10.666667 10.666667 0 0 1 921.408 896H778.666667a10.666667 10.666667 0 0 1-10.666667-10.666667V736a10.666667 10.666667 0 0 1 10.666667-10.666667h142.741333a10.666667 10.666667 0 0 1 9.546667 15.434667z m-837.898667 0l32.565333 65.130667a10.666667 10.666667 0 0 1 0 9.536l-32.565333 65.130666A10.666667 10.666667 0 0 0 102.592 896H245.333333a10.666667 10.666667 0 0 0 10.666667-10.666667V736a10.666667 10.666667 0 0 0-10.666667-10.666667H102.592a10.666667 10.666667 0 0 0-9.536 15.434667z" fill="#9B0F15" p-id="3227"></path><path d="M108.309333 734.976a10.666667 10.666667 0 0 1 9.024-4.970667h45.333334a10.666667 10.666667 0 1 1 0 21.333334h-28.405334l22.026667 46.058666a10.666667 10.666667 0 0 1-19.242667 9.205334l-29.333333-61.333334a10.666667 10.666667 0 0 1 0.597333-10.293333z" fill="#DF3840" p-id="3228"></path><path d="M810.666667 842.666667V693.333333a10.666667 10.666667 0 0 0-10.666667-10.666666H224a10.666667 10.666667 0 0 0-10.666667 10.666666v149.333334a10.666667 10.666667 0 0 0 10.666667 10.666666h576a10.666667 10.666667 0 0 0 10.666667-10.666666z" fill="#F1333B" p-id="3229"></path><path d="M832 693.333333v149.333334a32 32 0 0 1-32 32H224a32 32 0 0 1-32-32V693.333333a32 32 0 0 1 32-32h576a32 32 0 0 1 32 32z m-21.333333 0v149.333334a10.666667 10.666667 0 0 1-10.666667 10.666666H224a10.666667 10.666667 0 0 1-10.666667-10.666666V693.333333a10.666667 10.666667 0 0 1 10.666667-10.666666h576a10.666667 10.666667 0 0 1 10.666667 10.666666z" fill="#9B0F15" p-id="3230"></path><path d="M781.194667 772.053333a10.805333 10.805333 0 0 1-10.933334-10.666666c0-5.898667 4.906667-10.677333 10.933334-10.677334 6.048 0 10.944 4.778667 10.944 10.666667 0 5.898667-4.906667 10.666667-10.944 10.666667zM739.584 767.786667c-7.509333 0-13.6-5.941333-13.6-13.28 0-7.328 6.090667-13.269333 13.6-13.269334 7.52 0 13.610667 5.941333 13.610667 13.28 0 7.328-6.090667 13.269333-13.610667 13.269334zM758.122667 798.122667a6.72 6.72 0 0 1-6.794667-6.634667 6.72 6.72 0 0 1 6.794667-6.634667 6.72 6.72 0 0 1 6.805333 6.634667 6.72 6.72 0 0 1-6.805333 6.634667zM746.389333 727.936a6.72 6.72 0 0 1-6.805333-6.634667 6.72 6.72 0 0 1 6.805333-6.634666 6.72 6.72 0 0 1 6.805334 6.634666 6.72 6.72 0 0 1-6.805334 6.634667zM710.645333 791.488a6.72 6.72 0 0 1-6.805333-6.634667 6.72 6.72 0 0 1 6.805333-6.634666 6.72 6.72 0 0 1 6.805334 6.634666 6.72 6.72 0 0 1-6.805334 6.634667zM703.84 757.344a6.72 6.72 0 0 1-6.794667-6.634667 6.72 6.72 0 0 1 6.794667-6.634666 6.72 6.72 0 0 1 6.805333 6.634666 6.72 6.72 0 0 1-6.805333 6.634667zM657.472 834.325333a6.72 6.72 0 0 1-6.805333-6.634666 6.72 6.72 0 0 1 6.805333-6.634667 6.72 6.72 0 0 1 6.805333 6.634667 6.72 6.72 0 0 1-6.805333 6.634666zM792.8 808.992a6.72 6.72 0 0 1-6.794667-6.634667 6.72 6.72 0 0 1 6.794667-6.634666 6.72 6.72 0 0 1 6.805333 6.634666 6.72 6.72 0 0 1-6.805333 6.634667zM728.522667 823.530667a10.933333 10.933333 0 0 1-11.072-10.805334c0-5.962667 4.949333-10.794667 11.072-10.794666 6.112 0 11.061333 4.832 11.061333 10.794666 0 5.973333-4.949333 10.805333-11.061333 10.805334zM776 834.325333a10.933333 10.933333 0 0 1-11.072-10.805333c0-5.962667 4.96-10.794667 11.072-10.794667s11.072 4.832 11.072 10.794667c0 5.973333-4.96 10.805333-11.072 10.805333zM679.168 813.088a10.933333 10.933333 0 0 1-11.072-10.794667c0-5.973333 4.96-10.805333 11.072-10.805333s11.072 4.842667 11.072 10.805333c0 5.962667-4.96 10.794667-11.072 10.794667zM697.045333 837.6a6.72 6.72 0 0 1-6.805333-6.634667 6.72 6.72 0 0 1 6.805333-6.634666 6.72 6.72 0 0 1 6.794667 6.634666 6.72 6.72 0 0 1-6.794667 6.634667z" fill="#DB1B24" p-id="3231"></path><path d="M220 698.005333a10.666667 10.666667 0 0 1 10.666667-10.666666h400a10.666667 10.666667 0 1 1 0 21.333333h-389.333334v74.666667a10.666667 10.666667 0 1 1-21.333333 0v-85.333334z" fill="#FE666D" p-id="3232"></path><path d="M451.36 352.394667c4.48 4.48 4.48 11.733333 0 16.202666a12.373333 12.373333 0 0 0-3.146667 5.461334c1.141333-0.490667 2.304-0.96 3.488-1.397334a11.456 11.456 0 1 1 7.936 21.493334c-13.472 4.970667-23.253333 15.136-29.802666 27.264-6.592 12.245333-9.493333 25.792-9.493334 36.021333 0 20.789333 8.832 42.986667 22.314667 62.410667 13.472 19.434667 30.72 34.794667 45.824 42.346666a11.456 11.456 0 0 1-10.24 20.490667 122.741333 122.741333 0 0 1-23.413333-15.637333l-1.173334 0.245333c-2.698667 0.533333-6.56 1.141333-11.658666 1.536-10.208 0.778667-25.376 0.746667-46.186667-2.24a11.456 11.456 0 0 1 3.242667-22.677333c15.136 2.165333 26.688 2.602667 35.029333 2.378666a179.957333 179.957333 0 0 1-10.389333-13.568 116.992 116.992 0 0 1-18.378667 0.32c-12.458667-0.789333-29.365333-3.925333-43.392-14.453333a11.456 11.456 0 0 1 13.749333-18.325333c8.885333 6.666667 20.618667 9.248 31.072 9.898666 1.333333 0.085333 2.613333 0.138667 3.84 0.16a150.698667 150.698667 0 0 1-3.84-8.608 149.930667 149.930667 0 0 1-19.68-8.650666c-12.949333-6.858667-29.397333-18.101333-39.552-35.029334a11.456 11.456 0 1 1 19.648-11.786666c7.04 11.722667 19.232 20.522667 30.624 26.56l0.906667 0.48a103.466667 103.466667 0 0 1-1.248-15.317334l-1.066667-0.832a151.04 151.04 0 0 1-13.482666-11.925333c-9.792-9.802667-21.792-24.682667-25.333334-42.378667a11.456 11.456 0 0 1 22.474667-4.490666c2.186667 10.944 10.24 21.834667 19.061333 30.666666 0.746667 0.746667 1.493333 1.461333 2.218667 2.165334 1.152-4.010667 2.56-8.053333 4.245333-12.053334l-0.213333-0.234666a63.189333 63.189333 0 0 1-8.853333-13.173334c-4.362667-8.736-8.170667-21.621333-4.437334-36.544a11.456 11.456 0 1 1 22.229334 5.546667c-2.005333 8-0.085333 15.157333 2.709333 20.746667 0.373333 0.746667 0.746667 1.44 1.130667 2.101333 2.304-2.944 4.832-5.781333 7.584-8.448a48.437333 48.437333 0 0 1-1.066667-10.005333c0-7.498667 1.888-18.090667 10.517333-26.72 4.48-4.48 11.733333-4.48 16.213334 0zM572.64 352.394667c4.48-4.48 11.733333-4.48 16.213333 0 8.629333 8.64 10.506667 19.221333 10.506667 26.72a48.362667 48.362667 0 0 1-1.066667 10.005333c2.762667 2.666667 5.28 5.504 7.584 8.448 0.384-0.661333 0.768-1.354667 1.141334-2.101333 2.784-5.589333 4.704-12.746667 2.709333-20.736a11.456 11.456 0 1 1 22.229333-5.557334c3.733333 14.922667-0.085333 27.808-4.448 36.544a63.125333 63.125333 0 0 1-9.066666 13.418667c1.696 3.989333 3.093333 8.032 4.245333 12.042667 0.746667-0.704 1.482667-1.418667 2.229333-2.165334 8.821333-8.832 16.874667-19.733333 19.061334-30.666666a11.456 11.456 0 0 1 22.464 4.490666c-3.530667 17.706667-15.530667 32.576-25.322667 42.378667a151.189333 151.189333 0 0 1-14.549333 12.757333 103.466667 103.466667 0 0 1-1.248 15.317334l0.896-0.48c11.402667-6.037333 23.594667-14.837333 30.624-26.56a11.456 11.456 0 0 1 19.648 11.786666c-10.154667 16.928-26.602667 28.170667-39.552 35.029334a150.016 150.016 0 0 1-19.68 8.650666c-1.184 2.912-2.474667 5.781333-3.84 8.608 1.226667-0.021333 2.517333-0.074667 3.84-0.16 10.453333-0.64 22.186667-3.232 31.082666-9.898666a11.456 11.456 0 0 1 13.749334 18.325333c-14.026667 10.517333-30.933333 13.664-43.402667 14.442667a116.992 116.992 0 0 1-18.378667-0.32 179.658667 179.658667 0 0 1-10.378666 13.578666c8.330667 0.224 19.893333-0.213333 35.018666-2.378666a11.456 11.456 0 0 1 3.242667 22.688c-20.8 2.976-35.968 3.008-46.186667 2.229333a98.037333 98.037333 0 0 1-12.832-1.781333c-7.68 6.410667-15.594667 11.733333-23.402666 15.637333a11.456 11.456 0 1 1-10.24-20.490667c15.093333-7.552 32.341333-22.912 45.824-42.346666 13.472-19.413333 22.293333-41.621333 22.293333-62.410667 0-10.24-2.88-23.786667-9.482667-36.021333-6.538667-12.128-16.32-22.293333-29.802666-27.264a11.456 11.456 0 0 1 7.936-21.493334c1.184 0.426667 2.346667 0.906667 3.498666 1.386667a12.373333 12.373333 0 0 0-3.157333-5.450667c-4.48-4.48-4.48-11.733333 0-16.213333z" fill="#E89B05" p-id="3233"></path></svg>